# xmcd
#
# Track frame offsets:
#	150
#	18629
#	37560
#	54544
#	72842
#	89932
#	105591
#	122556
#	141210
#	158064
#	176843
#	192792
#	209431
#	230520
#	256367
#	276750
#	303171
#	321022
#
# Disc length: 4702
#
# Revision: 4
# Processed by: cddbd v1.5.1PL0 Copyright (c) Steve Scherf et al.
# Submitted via: CDex 1.51
# Normalized: r3:DSETVAR1,TDELIM( - )
#
DISCID=fb125c12
DTITLE=Various Artist - Eighties Soul Weekender 3 [CD2]
DYEAR=1997
DGENRE=misc
TTITLE0=Yarborough and Peoples - Don't Stop The Music
TTITLE1=Al Hudson and The Partners - You Can Do It
TTITLE2=Stephanie Mills - The Medicine Song
TTITLE3=Rocker's Revenge - Walkin' On Sunshine
TTITLE4=Luther Vandross - Never Too Much
TTITLE5=Colonel Abrams - Trapped
TTITLE6=The Whispers - It's A Love Thing
TTITLE7=Quincy Jones - Ai No Corrida
TTITLE8=Gibson Brothers - Cuba
TTITLE9=Atmosfear - Dancing In Outer Space
TTITLE10=O'Jays - I Love Music
TTITLE11=Anita Ward - Ring My Bell
TTITLE12=The Players Association - Turn The Music Up!
TTITLE13=S.O.S. Band - Just Be Good To Me
TTITLE14=Maze - Twilight
TTITLE15=Roy Ayers - Love Will Bring Us Back Together
TTITLE16=Slave - Son Of Slide
TTITLE17=The Sugarhill Gang - Rapper's Delight
EXTD=YEAR: 1997
EXTT0=
EXTT1=
EXTT2=
EXTT3=
EXTT4=
EXTT5=
EXTT6=
EXTT7=
EXTT8=
EXTT9=
EXTT10=
EXTT11=
EXTT12=
EXTT13=
EXTT14=
EXTT15=
EXTT16=
EXTT17=
PLAYORDER=
